STARTFONT 2.1
FONT -Simple-Regular-R-Regular--6-6-75-75-c-80-iso10646-1
SIZE 6 75 75
FONTBOUNDINGBOX 6 6 0 -1
STARTPROPERTIES 9
FAMILY_NAME "Simple"
WEIGHT_NAME "Regular"
FONT_VERSION "Version 1.0"
FOUNDRY "Made with Bits'n'Picas by Kreative Software"
FONT_ASCENT 5
FONT_DESCENT 1
POINT_SIZE 5
X_HEIGHT 4
CAP_HEIGHT 5
ENDPROPERTIES
CHARS 194
STARTCHAR U+0020
ENCODING 32
SWIDTH 500 0
DWIDTH 3 0
BBX 0 0 0 0
BITMAP
ENDCHAR
STARTCHAR U+0021
ENCODING 33
SWIDTH 333 0
DWIDTH 2 0
BBX 1 5 0 0
BITMAP
80
80
80
00
80
ENDCHAR
STARTCHAR U+0022
ENCODING 34
SWIDTH 666 0
DWIDTH 4 0
BBX 3 2 0 3
BITMAP
A0
A0
ENDCHAR
STARTCHAR U+0023
ENCODING 35
SWIDTH 1000 0
DWIDTH 6 0
BBX 5 5 0 0
BITMAP
50
F8
50
F8
50
ENDCHAR
STARTCHAR U+0024
ENCODING 36
SWIDTH 666 0
DWIDTH 4 0
BBX 3 6 0 -1
BITMAP
40
60
80
60
E0
40
ENDCHAR
STARTCHAR U+0025
ENCODING 37
SWIDTH 1000 0
DWIDTH 6 0
BBX 5 5 0 0
BITMAP
C8
90
20
48
98
ENDCHAR
STARTCHAR U+0026
ENCODING 38
SWIDTH 833 0
DWIDTH 5 0
BBX 4 5 0 0
BITMAP
E0
A0
40
A0
D0
ENDCHAR
STARTCHAR U+0027
ENCODING 39
SWIDTH 333 0
DWIDTH 2 0
BBX 1 2 0 3
BITMAP
80
80
ENDCHAR
STARTCHAR U+0028
ENCODING 40
SWIDTH 500 0
DWIDTH 3 0
BBX 2 5 0 0
BITMAP
40
80
80
80
40
ENDCHAR
STARTCHAR U+0029
ENCODING 41
SWIDTH 500 0
DWIDTH 3 0
BBX 2 5 0 0
BITMAP
80
40
40
40
80
ENDCHAR
STARTCHAR U+002A
ENCODING 42
SWIDTH 666 0
DWIDTH 4 0
BBX 3 3 0 1
BITMAP
E0
40
A0
ENDCHAR
STARTCHAR U+002B
ENCODING 43
SWIDTH 666 0
DWIDTH 4 0
BBX 3 3 0 1
BITMAP
40
E0
40
ENDCHAR
STARTCHAR U+002C
ENCODING 44
SWIDTH 500 0
DWIDTH 3 0
BBX 2 2 0 -1
BITMAP
40
80
ENDCHAR
STARTCHAR U+002D
ENCODING 45
SWIDTH 666 0
DWIDTH 4 0
BBX 3 1 0 2
BITMAP
E0
ENDCHAR
STARTCHAR U+002E
ENCODING 46
SWIDTH 333 0
DWIDTH 2 0
BBX 1 1 0 0
BITMAP
80
ENDCHAR
STARTCHAR U+002F
ENCODING 47
SWIDTH 666 0
DWIDTH 4 0
BBX 3 5 0 0
BITMAP
20
20
40
40
80
ENDCHAR
STARTCHAR U+0030
ENCODING 48
SWIDTH 833 0
DWIDTH 5 0
BBX 4 5 0 0
BITMAP
60
D0
90
B0
60
ENDCHAR
STARTCHAR U+0031
ENCODING 49
SWIDTH 500 0
DWIDTH 3 0
BBX 2 5 0 0
BITMAP
40
C0
40
40
40
ENDCHAR
STARTCHAR U+0032
ENCODING 50
SWIDTH 666 0
DWIDTH 4 0
BBX 3 5 0 0
BITMAP
40
A0
20
40
E0
ENDCHAR
STARTCHAR U+0033
ENCODING 51
SWIDTH 666 0
DWIDTH 4 0
BBX 3 5 0 0
BITMAP
C0
20
C0
20
C0
ENDCHAR
STARTCHAR U+0034
ENCODING 52
SWIDTH 666 0
DWIDTH 4 0
BBX 3 5 0 0
BITMAP
20
40
80
E0
20
ENDCHAR
STARTCHAR U+0035
ENCODING 53
SWIDTH 666 0
DWIDTH 4 0
BBX 3 5 0 0
BITMAP
E0
80
60
20
C0
ENDCHAR
STARTCHAR U+0036
ENCODING 54
SWIDTH 666 0
DWIDTH 4 0
BBX 3 5 0 0
BITMAP
60
80
C0
A0
40
ENDCHAR
STARTCHAR U+0037
ENCODING 55
SWIDTH 666 0
DWIDTH 4 0
BBX 3 5 0 0
BITMAP
E0
20
40
80
80
ENDCHAR
STARTCHAR U+0038
ENCODING 56
SWIDTH 666 0
DWIDTH 4 0
BBX 3 5 0 0
BITMAP
40
A0
40
A0
40
ENDCHAR
STARTCHAR U+0039
ENCODING 57
SWIDTH 666 0
DWIDTH 4 0
BBX 3 5 0 0
BITMAP
40
A0
60
20
C0
ENDCHAR
STARTCHAR U+003A
ENCODING 58
SWIDTH 333 0
DWIDTH 2 0
BBX 1 4 0 0
BITMAP
80
00
00
80
ENDCHAR
STARTCHAR U+003B
ENCODING 59
SWIDTH 333 0
DWIDTH 2 0
BBX 1 5 0 -1
BITMAP
80
00
00
80
80
ENDCHAR
STARTCHAR U+003C
ENCODING 60
SWIDTH 666 0
DWIDTH 4 0
BBX 3 5 0 0
BITMAP
20
40
80
40
20
ENDCHAR
STARTCHAR U+003D
ENCODING 61
SWIDTH 666 0
DWIDTH 4 0
BBX 3 3 0 1
BITMAP
E0
00
E0
ENDCHAR
STARTCHAR U+003E
ENCODING 62
SWIDTH 666 0
DWIDTH 4 0
BBX 3 5 0 0
BITMAP
80
40
20
40
80
ENDCHAR
STARTCHAR U+003F
ENCODING 63
SWIDTH 666 0
DWIDTH 4 0
BBX 3 5 0 0
BITMAP
C0
20
40
00
40
ENDCHAR
STARTCHAR U+0040
ENCODING 64
SWIDTH 833 0
DWIDTH 5 0
BBX 4 5 0 0
BITMAP
60
90
A0
80
70
ENDCHAR
STARTCHAR U+0041
ENCODING 65
SWIDTH 666 0
DWIDTH 4 0
BBX 3 5 0 0
BITMAP
40
A0
A0
E0
A0
ENDCHAR
STARTCHAR U+0042
ENCODING 66
SWIDTH 666 0
DWIDTH 4 0
BBX 3 5 0 0
BITMAP
C0
A0
C0
A0
C0
ENDCHAR
STARTCHAR U+0043
ENCODING 67
SWIDTH 666 0
DWIDTH 4 0
BBX 3 5 0 0
BITMAP
40
A0
80
A0
40
ENDCHAR
STARTCHAR U+0044
ENCODING 68
SWIDTH 666 0
DWIDTH 4 0
BBX 3 5 0 0
BITMAP
C0
A0
A0
A0
C0
ENDCHAR
STARTCHAR U+0045
ENCODING 69
SWIDTH 666 0
DWIDTH 4 0
BBX 3 5 0 0
BITMAP
E0
80
C0
80
E0
ENDCHAR
STARTCHAR U+0046
ENCODING 70
SWIDTH 666 0
DWIDTH 4 0
BBX 3 5 0 0
BITMAP
E0
80
C0
80
80
ENDCHAR
STARTCHAR U+0047
ENCODING 71
SWIDTH 666 0
DWIDTH 4 0
BBX 3 5 0 0
BITMAP
60
80
80
A0
60
ENDCHAR
STARTCHAR U+0048
ENCODING 72
SWIDTH 666 0
DWIDTH 4 0
BBX 3 5 0 0
BITMAP
A0
A0
E0
A0
A0
ENDCHAR
STARTCHAR U+0049
ENCODING 73
SWIDTH 333 0
DWIDTH 2 0
BBX 1 5 0 0
BITMAP
80
80
80
80
80
ENDCHAR
STARTCHAR U+004A
ENCODING 74
SWIDTH 666 0
DWIDTH 4 0
BBX 3 5 0 0
BITMAP
60
20
20
A0
40
ENDCHAR
STARTCHAR U+004B
ENCODING 75
SWIDTH 833 0
DWIDTH 5 0
BBX 4 5 0 0
BITMAP
90
A0
C0
A0
90
ENDCHAR
STARTCHAR U+004C
ENCODING 76
SWIDTH 666 0
DWIDTH 4 0
BBX 3 5 0 0
BITMAP
80
80
80
80
E0
ENDCHAR
STARTCHAR U+004D
ENCODING 77
SWIDTH 1000 0
DWIDTH 6 0
BBX 5 5 0 0
BITMAP
88
D8
A8
88
88
ENDCHAR
STARTCHAR U+004E
ENCODING 78
SWIDTH 833 0
DWIDTH 5 0
BBX 4 5 0 0
BITMAP
90
90
D0
B0
90
ENDCHAR
STARTCHAR U+004F
ENCODING 79
SWIDTH 666 0
DWIDTH 4 0
BBX 3 5 0 0
BITMAP
40
A0
A0
A0
40
ENDCHAR
STARTCHAR U+0050
ENCODING 80
SWIDTH 666 0
DWIDTH 4 0
BBX 3 5 0 0
BITMAP
C0
A0
C0
80
80
ENDCHAR
STARTCHAR U+0051
ENCODING 81
SWIDTH 833 0
DWIDTH 5 0
BBX 4 5 0 0
BITMAP
60
90
90
A0
50
ENDCHAR
STARTCHAR U+0052
ENCODING 82
SWIDTH 666 0
DWIDTH 4 0
BBX 3 5 0 0
BITMAP
C0
A0
C0
A0
A0
ENDCHAR
STARTCHAR U+0053
ENCODING 83
SWIDTH 666 0
DWIDTH 4 0
BBX 3 5 0 0
BITMAP
60
80
40
20
C0
ENDCHAR
STARTCHAR U+0054
ENCODING 84
SWIDTH 666 0
DWIDTH 4 0
BBX 3 5 0 0
BITMAP
E0
40
40
40
40
ENDCHAR
STARTCHAR U+0055
ENCODING 85
SWIDTH 666 0
DWIDTH 4 0
BBX 3 5 0 0
BITMAP
A0
A0
A0
A0
E0
ENDCHAR
STARTCHAR U+0056
ENCODING 86
SWIDTH 666 0
DWIDTH 4 0
BBX 3 5 0 0
BITMAP
A0
A0
A0
C0
80
ENDCHAR
STARTCHAR U+0057
ENCODING 87
SWIDTH 1000 0
DWIDTH 6 0
BBX 5 5 0 0
BITMAP
A8
A8
A8
A8
50
ENDCHAR
STARTCHAR U+0058
ENCODING 88
SWIDTH 666 0
DWIDTH 4 0
BBX 3 5 0 0
BITMAP
A0
A0
40
A0
A0
ENDCHAR
STARTCHAR U+0059
ENCODING 89
SWIDTH 666 0
DWIDTH 4 0
BBX 3 5 0 0
BITMAP
A0
A0
40
40
40
ENDCHAR
STARTCHAR U+005A
ENCODING 90
SWIDTH 666 0
DWIDTH 4 0
BBX 3 5 0 0
BITMAP
E0
20
40
80
E0
ENDCHAR
STARTCHAR U+005B
ENCODING 91
SWIDTH 500 0
DWIDTH 3 0
BBX 2 5 0 0
BITMAP
C0
80
80
80
C0
ENDCHAR
STARTCHAR U+005C
ENCODING 92
SWIDTH 666 0
DWIDTH 4 0
BBX 3 5 0 0
BITMAP
80
40
40
20
20
ENDCHAR
STARTCHAR U+005D
ENCODING 93
SWIDTH 500 0
DWIDTH 3 0
BBX 2 5 0 0
BITMAP
C0
40
40
40
C0
ENDCHAR
STARTCHAR U+005E
ENCODING 94
SWIDTH 666 0
DWIDTH 4 0
BBX 3 2 0 3
BITMAP
40
A0
ENDCHAR
STARTCHAR U+005F
ENCODING 95
SWIDTH 666 0
DWIDTH 4 0
BBX 3 1 0 0
BITMAP
E0
ENDCHAR
STARTCHAR U+0060
ENCODING 96
SWIDTH 500 0
DWIDTH 3 0
BBX 2 2 0 3
BITMAP
80
40
ENDCHAR
STARTCHAR U+0061
ENCODING 97
SWIDTH 666 0
DWIDTH 4 0
BBX 3 4 0 0
BITMAP
C0
20
E0
E0
ENDCHAR
STARTCHAR U+0062
ENCODING 98
SWIDTH 666 0
DWIDTH 4 0
BBX 3 4 0 0
BITMAP
80
E0
A0
E0
ENDCHAR
STARTCHAR U+0063
ENCODING 99
SWIDTH 666 0
DWIDTH 4 0
BBX 3 4 0 0
BITMAP
60
80
80
60
ENDCHAR
STARTCHAR U+0064
ENCODING 100
SWIDTH 666 0
DWIDTH 4 0
BBX 3 4 0 0
BITMAP
20
E0
A0
E0
ENDCHAR
STARTCHAR U+0065
ENCODING 101
SWIDTH 666 0
DWIDTH 4 0
BBX 3 4 0 0
BITMAP
E0
E0
80
60
ENDCHAR
STARTCHAR U+0066
ENCODING 102
SWIDTH 500 0
DWIDTH 3 0
BBX 2 4 0 0
BITMAP
C0
80
C0
80
ENDCHAR
STARTCHAR U+0067
ENCODING 103
SWIDTH 666 0
DWIDTH 4 0
BBX 3 5 0 -1
BITMAP
E0
A0
E0
20
C0
ENDCHAR
STARTCHAR U+0068
ENCODING 104
SWIDTH 666 0
DWIDTH 4 0
BBX 3 4 0 0
BITMAP
80
C0
A0
A0
ENDCHAR
STARTCHAR U+0069
ENCODING 105
SWIDTH 333 0
DWIDTH 2 0
BBX 1 4 0 0
BITMAP
80
00
80
80
ENDCHAR
STARTCHAR U+006A
ENCODING 106
SWIDTH 500 0
DWIDTH 3 0
BBX 2 5 0 -1
BITMAP
40
00
40
40
80
ENDCHAR
STARTCHAR U+006B
ENCODING 107
SWIDTH 666 0
DWIDTH 4 0
BBX 3 4 0 0
BITMAP
80
A0
C0
A0
ENDCHAR
STARTCHAR U+006C
ENCODING 108
SWIDTH 500 0
DWIDTH 3 0
BBX 2 4 0 0
BITMAP
80
80
80
C0
ENDCHAR
STARTCHAR U+006D
ENCODING 109
SWIDTH 1000 0
DWIDTH 6 0
BBX 5 4 0 0
BITMAP
D0
A8
A8
A8
ENDCHAR
STARTCHAR U+006E
ENCODING 110
SWIDTH 666 0
DWIDTH 4 0
BBX 3 4 0 0
BITMAP
C0
A0
A0
A0
ENDCHAR
STARTCHAR U+006F
ENCODING 111
SWIDTH 666 0
DWIDTH 4 0
BBX 3 4 0 0
BITMAP
40
A0
A0
40
ENDCHAR
STARTCHAR U+0070
ENCODING 112
SWIDTH 666 0
DWIDTH 4 0
BBX 3 4 0 0
BITMAP
E0
A0
E0
80
ENDCHAR
STARTCHAR U+0071
ENCODING 113
SWIDTH 666 0
DWIDTH 4 0
BBX 3 5 0 -1
BITMAP
40
A0
A0
60
20
ENDCHAR
STARTCHAR U+0072
ENCODING 114
SWIDTH 666 0
DWIDTH 4 0
BBX 3 4 0 0
BITMAP
C0
A0
80
80
ENDCHAR
STARTCHAR U+0073
ENCODING 115
SWIDTH 666 0
DWIDTH 4 0
BBX 3 4 0 0
BITMAP
E0
80
60
E0
ENDCHAR
STARTCHAR U+0074
ENCODING 116
SWIDTH 500 0
DWIDTH 3 0
BBX 2 4 0 0
BITMAP
80
C0
80
C0
ENDCHAR
STARTCHAR U+0075
ENCODING 117
SWIDTH 666 0
DWIDTH 4 0
BBX 3 4 0 0
BITMAP
A0
A0
A0
40
ENDCHAR
STARTCHAR U+0076
ENCODING 118
SWIDTH 666 0
DWIDTH 4 0
BBX 3 4 0 0
BITMAP
A0
A0
C0
80
ENDCHAR
STARTCHAR U+0077
ENCODING 119
SWIDTH 1000 0
DWIDTH 6 0
BBX 5 4 0 0
BITMAP
A8
A8
A8
D0
ENDCHAR
STARTCHAR U+0078
ENCODING 120
SWIDTH 666 0
DWIDTH 4 0
BBX 3 4 0 0
BITMAP
A0
40
40
A0
ENDCHAR
STARTCHAR U+0079
ENCODING 121
SWIDTH 666 0
DWIDTH 4 0
BBX 3 5 0 -1
BITMAP
A0
A0
60
20
C0
ENDCHAR
STARTCHAR U+007A
ENCODING 122
SWIDTH 666 0
DWIDTH 4 0
BBX 3 4 0 0
BITMAP
E0
20
40
E0
ENDCHAR
STARTCHAR U+007B
ENCODING 123
SWIDTH 666 0
DWIDTH 4 0
BBX 3 5 0 0
BITMAP
20
40
C0
40
20
ENDCHAR
STARTCHAR U+007C
ENCODING 124
SWIDTH 333 0
DWIDTH 2 0
BBX 1 5 0 0
BITMAP
80
80
80
80
80
ENDCHAR
STARTCHAR U+007D
ENCODING 125
SWIDTH 666 0
DWIDTH 4 0
BBX 3 5 0 0
BITMAP
80
40
60
40
80
ENDCHAR
STARTCHAR U+007E
ENCODING 126
SWIDTH 833 0
DWIDTH 5 0
BBX 4 2 0 2
BITMAP
50
A0
ENDCHAR
STARTCHAR U+2190
ENCODING 8592
SWIDTH 666 0
DWIDTH 4 0
BBX 3 5 0 0
BITMAP
20
60
E0
60
20
ENDCHAR
STARTCHAR U+2191
ENCODING 8593
SWIDTH 1000 0
DWIDTH 6 0
BBX 5 3 0 1
BITMAP
20
70
F8
ENDCHAR
STARTCHAR U+2192
ENCODING 8594
SWIDTH 666 0
DWIDTH 4 0
BBX 3 5 0 0
BITMAP
80
C0
E0
C0
80
ENDCHAR
STARTCHAR U+2193
ENCODING 8595
SWIDTH 1000 0
DWIDTH 6 0
BBX 5 3 0 1
BITMAP
F8
70
20
ENDCHAR
STARTCHAR U+E020
ENCODING 57376
SWIDTH 500 0
DWIDTH 3 0
BBX 3 6 0 -1
BITMAP
E0
E0
E0
E0
E0
E0
ENDCHAR
STARTCHAR U+E021
ENCODING 57377
SWIDTH 333 0
DWIDTH 2 0
BBX 2 6 0 -1
BITMAP
40
40
40
C0
40
C0
ENDCHAR
STARTCHAR U+E022
ENCODING 57378
SWIDTH 666 0
DWIDTH 4 0
BBX 4 6 0 -1
BITMAP
50
50
F0
F0
F0
F0
ENDCHAR
STARTCHAR U+E023
ENCODING 57379
SWIDTH 1000 0
DWIDTH 6 0
BBX 6 6 0 -1
BITMAP
AC
04
AC
04
AC
FC
ENDCHAR
STARTCHAR U+E024
ENCODING 57380
SWIDTH 666 0
DWIDTH 4 0
BBX 4 6 0 -1
BITMAP
B0
90
70
90
10
B0
ENDCHAR
STARTCHAR U+E025
ENCODING 57381
SWIDTH 1000 0
DWIDTH 6 0
BBX 6 6 0 -1
BITMAP
34
6C
DC
B4
64
FC
ENDCHAR
STARTCHAR U+E026
ENCODING 57382
SWIDTH 833 0
DWIDTH 5 0
BBX 5 6 0 -1
BITMAP
18
58
B8
58
28
F8
ENDCHAR
STARTCHAR U+E027
ENCODING 57383
SWIDTH 333 0
DWIDTH 2 0
BBX 2 6 0 -1
BITMAP
40
40
C0
C0
C0
C0
ENDCHAR
STARTCHAR U+E028
ENCODING 57384
SWIDTH 500 0
DWIDTH 3 0
BBX 3 6 0 -1
BITMAP
A0
60
60
60
A0
E0
ENDCHAR
STARTCHAR U+E029
ENCODING 57385
SWIDTH 500 0
DWIDTH 3 0
BBX 3 6 0 -1
BITMAP
60
A0
A0
A0
60
E0
ENDCHAR
STARTCHAR U+E02A
ENCODING 57386
SWIDTH 666 0
DWIDTH 4 0
BBX 4 6 0 -1
BITMAP
F0
10
B0
50
F0
F0
ENDCHAR
STARTCHAR U+E02B
ENCODING 57387
SWIDTH 666 0
DWIDTH 4 0
BBX 4 6 0 -1
BITMAP
F0
B0
10
B0
F0
F0
ENDCHAR
STARTCHAR U+E02C
ENCODING 57388
SWIDTH 500 0
DWIDTH 3 0
BBX 3 6 0 -1
BITMAP
E0
E0
E0
E0
A0
60
ENDCHAR
STARTCHAR U+E02D
ENCODING 57389
SWIDTH 666 0
DWIDTH 4 0
BBX 4 6 0 -1
BITMAP
F0
F0
10
F0
F0
F0
ENDCHAR
STARTCHAR U+E02E
ENCODING 57390
SWIDTH 333 0
DWIDTH 2 0
BBX 2 6 0 -1
BITMAP
C0
C0
C0
C0
40
C0
ENDCHAR
STARTCHAR U+E02F
ENCODING 57391
SWIDTH 666 0
DWIDTH 4 0
BBX 4 6 0 -1
BITMAP
D0
D0
B0
B0
70
F0
ENDCHAR
STARTCHAR U+E030
ENCODING 57392
SWIDTH 833 0
DWIDTH 5 0
BBX 5 6 0 -1
BITMAP
98
28
68
48
98
F8
ENDCHAR
STARTCHAR U+E031
ENCODING 57393
SWIDTH 500 0
DWIDTH 3 0
BBX 3 6 0 -1
BITMAP
A0
20
A0
A0
A0
E0
ENDCHAR
STARTCHAR U+E032
ENCODING 57394
SWIDTH 666 0
DWIDTH 4 0
BBX 4 6 0 -1
BITMAP
B0
50
D0
B0
10
F0
ENDCHAR
STARTCHAR U+E033
ENCODING 57395
SWIDTH 666 0
DWIDTH 4 0
BBX 4 6 0 -1
BITMAP
30
D0
30
D0
30
F0
ENDCHAR
STARTCHAR U+E034
ENCODING 57396
SWIDTH 666 0
DWIDTH 4 0
BBX 4 6 0 -1
BITMAP
D0
B0
70
10
D0
F0
ENDCHAR
STARTCHAR U+E035
ENCODING 57397
SWIDTH 666 0
DWIDTH 4 0
BBX 4 6 0 -1
BITMAP
10
70
90
D0
30
F0
ENDCHAR
STARTCHAR U+E036
ENCODING 57398
SWIDTH 666 0
DWIDTH 4 0
BBX 4 6 0 -1
BITMAP
90
70
30
50
B0
F0
ENDCHAR
STARTCHAR U+E037
ENCODING 57399
SWIDTH 666 0
DWIDTH 4 0
BBX 4 6 0 -1
BITMAP
10
D0
B0
70
70
F0
ENDCHAR
STARTCHAR U+E038
ENCODING 57400
SWIDTH 666 0
DWIDTH 4 0
BBX 4 6 0 -1
BITMAP
B0
50
B0
50
B0
F0
ENDCHAR
STARTCHAR U+E039
ENCODING 57401
SWIDTH 666 0
DWIDTH 4 0
BBX 4 6 0 -1
BITMAP
B0
50
90
D0
30
F0
ENDCHAR
STARTCHAR U+E03A
ENCODING 57402
SWIDTH 333 0
DWIDTH 2 0
BBX 2 6 0 -1
BITMAP
C0
40
C0
C0
40
C0
ENDCHAR
STARTCHAR U+E03B
ENCODING 57403
SWIDTH 333 0
DWIDTH 2 0
BBX 2 6 0 -1
BITMAP
C0
40
C0
C0
40
40
ENDCHAR
STARTCHAR U+E03C
ENCODING 57404
SWIDTH 666 0
DWIDTH 4 0
BBX 4 6 0 -1
BITMAP
D0
B0
70
B0
D0
F0
ENDCHAR
STARTCHAR U+E03D
ENCODING 57405
SWIDTH 666 0
DWIDTH 4 0
BBX 4 6 0 -1
BITMAP
F0
10
F0
10
F0
F0
ENDCHAR
STARTCHAR U+E03E
ENCODING 57406
SWIDTH 666 0
DWIDTH 4 0
BBX 4 6 0 -1
BITMAP
70
B0
D0
B0
70
F0
ENDCHAR
STARTCHAR U+E03F
ENCODING 57407
SWIDTH 666 0
DWIDTH 4 0
BBX 4 6 0 -1
BITMAP
30
D0
B0
F0
B0
F0
ENDCHAR
STARTCHAR U+E040
ENCODING 57408
SWIDTH 833 0
DWIDTH 5 0
BBX 5 6 0 -1
BITMAP
98
68
58
78
88
F8
ENDCHAR
STARTCHAR U+E041
ENCODING 57409
SWIDTH 666 0
DWIDTH 4 0
BBX 4 6 0 -1
BITMAP
B0
50
50
10
50
F0
ENDCHAR
STARTCHAR U+E042
ENCODING 57410
SWIDTH 666 0
DWIDTH 4 0
BBX 4 6 0 -1
BITMAP
30
50
30
50
30
F0
ENDCHAR
STARTCHAR U+E043
ENCODING 57411
SWIDTH 666 0
DWIDTH 4 0
BBX 4 6 0 -1
BITMAP
B0
50
70
50
B0
F0
ENDCHAR
STARTCHAR U+E044
ENCODING 57412
SWIDTH 666 0
DWIDTH 4 0
BBX 4 6 0 -1
BITMAP
30
50
50
50
30
F0
ENDCHAR
STARTCHAR U+E045
ENCODING 57413
SWIDTH 666 0
DWIDTH 4 0
BBX 4 6 0 -1
BITMAP
10
70
30
70
10
F0
ENDCHAR
STARTCHAR U+E046
ENCODING 57414
SWIDTH 666 0
DWIDTH 4 0
BBX 4 6 0 -1
BITMAP
10
70
30
70
70
F0
ENDCHAR
STARTCHAR U+E047
ENCODING 57415
SWIDTH 666 0
DWIDTH 4 0
BBX 4 6 0 -1
BITMAP
90
70
70
50
90
F0
ENDCHAR
STARTCHAR U+E048
ENCODING 57416
SWIDTH 666 0
DWIDTH 4 0
BBX 4 6 0 -1
BITMAP
50
50
10
50
50
F0
ENDCHAR
STARTCHAR U+E049
ENCODING 57417
SWIDTH 333 0
DWIDTH 2 0
BBX 2 6 0 -1
BITMAP
40
40
40
40
40
C0
ENDCHAR
STARTCHAR U+E04A
ENCODING 57418
SWIDTH 666 0
DWIDTH 4 0
BBX 4 6 0 -1
BITMAP
90
D0
D0
50
B0
F0
ENDCHAR
STARTCHAR U+E04B
ENCODING 57419
SWIDTH 833 0
DWIDTH 5 0
BBX 5 6 0 -1
BITMAP
68
58
38
58
68
F8
ENDCHAR
STARTCHAR U+E04C
ENCODING 57420
SWIDTH 666 0
DWIDTH 4 0
BBX 4 6 0 -1
BITMAP
70
70
70
70
10
F0
ENDCHAR
STARTCHAR U+E04D
ENCODING 57421
SWIDTH 1000 0
DWIDTH 6 0
BBX 6 6 0 -1
BITMAP
74
24
54
74
74
FC
ENDCHAR
STARTCHAR U+E04E
ENCODING 57422
SWIDTH 833 0
DWIDTH 5 0
BBX 5 6 0 -1
BITMAP
68
68
28
48
68
F8
ENDCHAR
STARTCHAR U+E04F
ENCODING 57423
SWIDTH 666 0
DWIDTH 4 0
BBX 4 6 0 -1
BITMAP
B0
50
50
50
B0
F0
ENDCHAR
STARTCHAR U+E050
ENCODING 57424
SWIDTH 666 0
DWIDTH 4 0
BBX 4 6 0 -1
BITMAP
30
50
30
70
70
F0
ENDCHAR
STARTCHAR U+E051
ENCODING 57425
SWIDTH 833 0
DWIDTH 5 0
BBX 5 6 0 -1
BITMAP
98
68
68
58
A8
F8
ENDCHAR
STARTCHAR U+E052
ENCODING 57426
SWIDTH 666 0
DWIDTH 4 0
BBX 4 6 0 -1
BITMAP
30
50
30
50
50
F0
ENDCHAR
STARTCHAR U+E053
ENCODING 57427
SWIDTH 666 0
DWIDTH 4 0
BBX 4 6 0 -1
BITMAP
90
70
B0
D0
30
F0
ENDCHAR
STARTCHAR U+E054
ENCODING 57428
SWIDTH 666 0
DWIDTH 4 0
BBX 4 6 0 -1
BITMAP
10
B0
B0
B0
B0
F0
ENDCHAR
STARTCHAR U+E055
ENCODING 57429
SWIDTH 666 0
DWIDTH 4 0
BBX 4 6 0 -1
BITMAP
50
50
50
50
10
F0
ENDCHAR
STARTCHAR U+E056
ENCODING 57430
SWIDTH 666 0
DWIDTH 4 0
BBX 4 6 0 -1
BITMAP
50
50
50
30
70
F0
ENDCHAR
STARTCHAR U+E057
ENCODING 57431
SWIDTH 1000 0
DWIDTH 6 0
BBX 6 6 0 -1
BITMAP
54
54
54
54
AC
FC
ENDCHAR
STARTCHAR U+E058
ENCODING 57432
SWIDTH 666 0
DWIDTH 4 0
BBX 4 6 0 -1
BITMAP
50
50
B0
50
50
F0
ENDCHAR
STARTCHAR U+E059
ENCODING 57433
SWIDTH 666 0
DWIDTH 4 0
BBX 4 6 0 -1
BITMAP
50
50
B0
B0
B0
F0
ENDCHAR
STARTCHAR U+E05A
ENCODING 57434
SWIDTH 666 0
DWIDTH 4 0
BBX 4 6 0 -1
BITMAP
10
D0
B0
70
10
F0
ENDCHAR
STARTCHAR U+E05B
ENCODING 57435
SWIDTH 500 0
DWIDTH 3 0
BBX 3 6 0 -1
BITMAP
20
60
60
60
20
E0
ENDCHAR
STARTCHAR U+E05C
ENCODING 57436
SWIDTH 666 0
DWIDTH 4 0
BBX 4 6 0 -1
BITMAP
70
B0
B0
D0
D0
F0
ENDCHAR
STARTCHAR U+E05D
ENCODING 57437
SWIDTH 500 0
DWIDTH 3 0
BBX 3 6 0 -1
BITMAP
20
A0
A0
A0
20
E0
ENDCHAR
STARTCHAR U+E05E
ENCODING 57438
SWIDTH 666 0
DWIDTH 4 0
BBX 4 6 0 -1
BITMAP
B0
50
F0
F0
F0
F0
ENDCHAR
STARTCHAR U+E05F
ENCODING 57439
SWIDTH 666 0
DWIDTH 4 0
BBX 4 6 0 -1
BITMAP
F0
F0
F0
F0
10
F0
ENDCHAR
STARTCHAR U+E060
ENCODING 57440
SWIDTH 500 0
DWIDTH 3 0
BBX 3 6 0 -1
BITMAP
60
A0
E0
E0
E0
E0
ENDCHAR
STARTCHAR U+E061
ENCODING 57441
SWIDTH 666 0
DWIDTH 4 0
BBX 4 6 0 -1
BITMAP
F0
30
D0
10
10
F0
ENDCHAR
STARTCHAR U+E062
ENCODING 57442
SWIDTH 666 0
DWIDTH 4 0
BBX 4 6 0 -1
BITMAP
F0
70
10
50
10
F0
ENDCHAR
STARTCHAR U+E063
ENCODING 57443
SWIDTH 666 0
DWIDTH 4 0
BBX 4 6 0 -1
BITMAP
F0
90
70
70
90
F0
ENDCHAR
STARTCHAR U+E064
ENCODING 57444
SWIDTH 666 0
DWIDTH 4 0
BBX 4 6 0 -1
BITMAP
F0
D0
10
50
10
F0
ENDCHAR
STARTCHAR U+E065
ENCODING 57445
SWIDTH 666 0
DWIDTH 4 0
BBX 4 6 0 -1
BITMAP
F0
10
10
70
90
F0
ENDCHAR
STARTCHAR U+E066
ENCODING 57446
SWIDTH 500 0
DWIDTH 3 0
BBX 3 6 0 -1
BITMAP
E0
20
60
20
60
E0
ENDCHAR
STARTCHAR U+E067
ENCODING 57447
SWIDTH 666 0
DWIDTH 4 0
BBX 4 6 0 -1
BITMAP
F0
10
50
10
D0
30
ENDCHAR
STARTCHAR U+E068
ENCODING 57448
SWIDTH 666 0
DWIDTH 4 0
BBX 4 6 0 -1
BITMAP
F0
70
30
50
50
F0
ENDCHAR
STARTCHAR U+E069
ENCODING 57449
SWIDTH 333 0
DWIDTH 2 0
BBX 2 6 0 -1
BITMAP
C0
40
C0
40
40
C0
ENDCHAR
STARTCHAR U+E06A
ENCODING 57450
SWIDTH 500 0
DWIDTH 3 0
BBX 3 6 0 -1
BITMAP
E0
A0
E0
A0
A0
60
ENDCHAR
STARTCHAR U+E06B
ENCODING 57451
SWIDTH 666 0
DWIDTH 4 0
BBX 4 6 0 -1
BITMAP
F0
70
50
30
50
F0
ENDCHAR
STARTCHAR U+E06C
ENCODING 57452
SWIDTH 500 0
DWIDTH 3 0
BBX 3 6 0 -1
BITMAP
E0
60
60
60
20
E0
ENDCHAR
STARTCHAR U+E06D
ENCODING 57453
SWIDTH 1000 0
DWIDTH 6 0
BBX 6 6 0 -1
BITMAP
FC
2C
54
54
54
FC
ENDCHAR
STARTCHAR U+E06E
ENCODING 57454
SWIDTH 666 0
DWIDTH 4 0
BBX 4 6 0 -1
BITMAP
F0
30
50
50
50
F0
ENDCHAR
STARTCHAR U+E06F
ENCODING 57455
SWIDTH 666 0
DWIDTH 4 0
BBX 4 6 0 -1
BITMAP
F0
B0
50
50
B0
F0
ENDCHAR
STARTCHAR U+E070
ENCODING 57456
SWIDTH 666 0
DWIDTH 4 0
BBX 4 6 0 -1
BITMAP
F0
10
50
10
70
F0
ENDCHAR
STARTCHAR U+E071
ENCODING 57457
SWIDTH 666 0
DWIDTH 4 0
BBX 4 6 0 -1
BITMAP
F0
B0
50
50
90
D0
ENDCHAR
STARTCHAR U+E072
ENCODING 57458
SWIDTH 666 0
DWIDTH 4 0
BBX 4 6 0 -1
BITMAP
F0
30
50
70
70
F0
ENDCHAR
STARTCHAR U+E073
ENCODING 57459
SWIDTH 666 0
DWIDTH 4 0
BBX 4 6 0 -1
BITMAP
F0
10
70
90
10
F0
ENDCHAR
STARTCHAR U+E074
ENCODING 57460
SWIDTH 500 0
DWIDTH 3 0
BBX 3 6 0 -1
BITMAP
E0
60
20
60
20
E0
ENDCHAR
STARTCHAR U+E075
ENCODING 57461
SWIDTH 666 0
DWIDTH 4 0
BBX 4 6 0 -1
BITMAP
F0
50
50
50
B0
F0
ENDCHAR
STARTCHAR U+E076
ENCODING 57462
SWIDTH 666 0
DWIDTH 4 0
BBX 4 6 0 -1
BITMAP
F0
50
50
30
70
F0
ENDCHAR
STARTCHAR U+E077
ENCODING 57463
SWIDTH 1000 0
DWIDTH 6 0
BBX 6 6 0 -1
BITMAP
FC
54
54
54
2C
FC
ENDCHAR
STARTCHAR U+E078
ENCODING 57464
SWIDTH 666 0
DWIDTH 4 0
BBX 4 6 0 -1
BITMAP
F0
50
B0
B0
50
F0
ENDCHAR
STARTCHAR U+E079
ENCODING 57465
SWIDTH 666 0
DWIDTH 4 0
BBX 4 6 0 -1
BITMAP
F0
50
50
90
D0
30
ENDCHAR
STARTCHAR U+E07A
ENCODING 57466
SWIDTH 666 0
DWIDTH 4 0
BBX 4 6 0 -1
BITMAP
F0
10
D0
B0
10
F0
ENDCHAR
STARTCHAR U+E07B
ENCODING 57467
SWIDTH 666 0
DWIDTH 4 0
BBX 4 6 0 -1
BITMAP
D0
B0
30
B0
D0
F0
ENDCHAR
STARTCHAR U+E07C
ENCODING 57468
SWIDTH 333 0
DWIDTH 2 0
BBX 2 6 0 -1
BITMAP
40
40
40
40
40
C0
ENDCHAR
STARTCHAR U+E07D
ENCODING 57469
SWIDTH 666 0
DWIDTH 4 0
BBX 4 6 0 -1
BITMAP
70
B0
90
B0
70
F0
ENDCHAR
STARTCHAR U+E07E
ENCODING 57470
SWIDTH 833 0
DWIDTH 5 0
BBX 5 6 0 -1
BITMAP
F8
A8
58
F8
F8
F8
ENDCHAR
ENDFONT
